<svg width="32" height="33" viewBox="0 0 32 33" fill="none" xmlns="http://www.w3.org/2000/svg">
<path d="M7.53333 22.463C6.31111 21.2747 5.41667 19.9784 4.85 18.5741C4.28333 17.1698 4 15.7222 4 14.2315C4 12.7407 4.28333 11.2932 4.85 9.88889C5.41667 8.48457 6.31111 7.18827 7.53333 6L8.2 6.64815C7.08889 7.75 6.26667 8.94907 5.73333 10.2454C5.2 11.5417 4.93333 12.8704 4.93333 14.2315C4.93333 15.5926 5.2 16.9213 5.73333 18.2176C6.26667 19.5139 7.08889 20.713 8.2 21.8148L7.53333 22.463ZM10.6 19.4815C9.86667 18.7253 9.31667 17.8935 8.95 16.9861C8.58333 16.0787 8.4 15.1605 8.4 14.2315C8.4 13.3025 8.58333 12.3843 8.95 11.4769C9.31667 10.5694 9.86667 9.73765 10.6 8.98148L11.2667 9.62963C10.6222 10.2562 10.1389 10.9745 9.81667 11.7847C9.49444 12.5949 9.33333 13.4105 9.33333 14.2315C9.33333 15.0525 9.48889 15.8627 9.8 16.662C10.1111 17.4614 10.6 18.1852 11.2667 18.8333L10.6 19.4815ZM11.2 27L14.9 16.2083C14.5 16.0139 14.1944 15.7276 13.9833 15.3495C13.7722 14.9715 13.6667 14.5988 13.6667 14.2315C13.6667 13.6049 13.8944 13.0702 14.35 12.6273C14.8056 12.1844 15.3556 11.963 16 11.963C16.6444 11.963 17.1944 12.1844 17.65 12.6273C18.1056 13.0702 18.3333 13.6049 18.3333 14.2315C18.3333 14.5988 18.2389 14.9606 18.05 15.3171C17.8611 15.6736 17.5444 15.9707 17.1 16.2083L20.8 27H19.8L18.9333 24.4074H13.0667L12.2333 27H11.2ZM13.4 23.5H18.6L16 15.8519L13.4 23.5ZM21.4 19.4815L20.7333 18.8333C21.3778 18.2068 21.8611 17.4884 22.1833 16.6782C22.5056 15.8681 22.6667 15.0525 22.6667 14.2315C22.6667 13.4753 22.5056 12.6867 22.1833 11.8657C21.8611 11.0448 21.3778 10.2994 20.7333 9.62963L21.4 8.98148C22.1333 9.73765 22.6833 10.5802 23.05 11.5093C23.4167 12.4383 23.6 13.3565 23.6 14.2639C23.6 15.1929 23.4222 16.1057 23.0667 17.0023C22.7111 17.8989 22.1556 18.7253 21.4 19.4815ZM24.4667 22.463L23.8 21.8148C24.9111 20.713 25.7333 19.5139 26.2667 18.2176C26.8 16.9213 27.0667 15.5926 27.0667 14.2315C27.0667 12.8704 26.8 11.5417 26.2667 10.2454C25.7333 8.94907 24.9111 7.75 23.8 6.64815L24.4667 6C25.6667 7.18827 26.5556 8.48457 27.1333 9.88889C27.7111 11.2932 28 12.7407 28 14.2315C28 15.7222 27.7222 17.1698 27.1667 18.5741C26.6111 19.9784 25.7111 21.2747 24.4667 22.463Z" fill="white"/>
</svg>
