<svg width="32" height="33" viewBox="0 0 32 33" fill="none" xmlns="http://www.w3.org/2000/svg">
<path d="M5.09091 9.87662V26.1623C5.09091 26.526 5.20779 26.8247 5.44156 27.0584C5.67532 27.2922 5.97403 27.4091 6.33766 27.4091H25.6623C26.026 27.4091 26.3247 27.2922 26.5584 27.0584C26.7922 26.8247 26.9091 26.526 26.9091 26.1623V9.87662H20.2078V19.8896L16 17.7857L11.7922 19.8896V9.87662H5.09091ZM6.33766 28.5C5.68831 28.5 5.13636 28.2727 4.68182 27.8182C4.22727 27.3636 4 26.8117 4 26.1623V9.91558C4 9.62987 4.04545 9.36364 4.13636 9.11688C4.22727 8.87013 4.36364 8.64286 4.54545 8.43506L7.11688 5.35714C7.32468 5.07143 7.58442 4.85714 7.8961 4.71429C8.20779 4.57143 8.54545 4.5 8.90909 4.5H23.013C23.3766 4.5 23.7208 4.57143 24.0455 4.71429C24.3701 4.85714 24.6364 5.07143 24.8442 5.35714L27.4545 8.51299C27.6364 8.72078 27.7727 8.95455 27.8636 9.21429C27.9545 9.47403 28 9.74675 28 10.0325V26.1623C28 26.8117 27.7727 27.3636 27.3182 27.8182C26.8636 28.2727 26.3117 28.5 25.6623 28.5H6.33766ZM5.67532 8.78571H26.2857L23.987 6.01948C23.8571 5.88961 23.7078 5.78571 23.539 5.70779C23.3701 5.62987 23.1948 5.59091 23.013 5.59091H8.94805C8.76623 5.59091 8.59091 5.62987 8.42208 5.70779C8.25325 5.78571 8.1039 5.88961 7.97403 6.01948L5.67532 8.78571ZM12.8831 9.87662V18.0974L16 16.539L19.1169 18.0974V9.87662H12.8831Z" fill="white"/>
</svg>
