<svg width="32" height="33" viewBox="0 0 32 33" fill="none" xmlns="http://www.w3.org/2000/svg">
<path d="M11.8621 19.6034C11.3793 19.6034 10.9713 19.4368 10.6379 19.1034C10.3046 18.7701 10.1379 18.3621 10.1379 17.8793C10.1379 17.3966 10.3046 16.9885 10.6379 16.6552C10.9713 16.3218 11.3793 16.1552 11.8621 16.1552C12.3448 16.1552 12.7529 16.3218 13.0862 16.6552C13.4195 16.9885 13.5862 17.3966 13.5862 17.8793C13.5862 18.3621 13.4195 18.7701 13.0862 19.1034C12.7529 19.4368 12.3448 19.6034 11.8621 19.6034ZM20.1379 19.6034C19.6552 19.6034 19.2471 19.4368 18.9138 19.1034C18.5805 18.7701 18.4138 18.3621 18.4138 17.8793C18.4138 17.3966 18.5805 16.9885 18.9138 16.6552C19.2471 16.3218 19.6552 16.1552 20.1379 16.1552C20.6207 16.1552 21.0287 16.3218 21.3621 16.6552C21.6954 16.9885 21.8621 17.3966 21.8621 17.8793C21.8621 18.3621 21.6954 18.7701 21.3621 19.1034C21.0287 19.4368 20.6207 19.6034 20.1379 19.6034ZM16 27.5345C19.0805 27.5345 21.6897 26.4655 23.8276 24.3276C25.9655 22.1897 27.0345 19.5805 27.0345 16.5C27.0345 15.9483 27 15.4138 26.931 14.8966C26.8621 14.3793 26.7356 13.8793 26.5517 13.3966C26.069 13.5115 25.5862 13.5977 25.1034 13.6552C24.6207 13.7126 24.1149 13.7414 23.5862 13.7414C21.4943 13.7414 19.5172 13.2931 17.6552 12.3966C15.7931 11.5 14.2069 10.2471 12.8966 8.63793C12.1609 10.431 11.1092 11.9885 9.74138 13.3103C8.37356 14.6322 6.78161 15.6264 4.96552 16.2931V16.5C4.96552 19.5805 6.03448 22.1897 8.17241 24.3276C10.3103 26.4655 12.9195 27.5345 16 27.5345ZM16.0059 28.5C14.3468 28.5 12.7867 28.1852 11.3255 27.5555C9.86437 26.9259 8.59345 26.0713 7.51276 24.9917C6.43184 23.9122 5.57621 22.6429 4.94586 21.1838C4.31529 19.7245 4 18.1652 4 16.5059C4 14.8468 4.31483 13.2867 4.94448 11.8255C5.57414 10.3644 6.42874 9.09345 7.50828 8.01276C8.58782 6.93184 9.85713 6.07621 11.3162 5.44586C12.7755 4.81529 14.3348 4.5 15.9941 4.5C17.6532 4.5 19.2133 4.81483 20.6745 5.44448C22.1356 6.07414 23.4066 6.92874 24.4872 8.00828C25.5682 9.08782 26.4238 10.3571 27.0541 11.8162C27.6847 13.2755 28 14.8348 28 16.4941C28 18.1532 27.6852 19.7133 27.0555 21.1745C26.4259 22.6356 25.5713 23.9066 24.4917 24.9872C23.4122 26.0682 22.1429 26.9238 20.6838 27.5541C19.2245 28.1847 17.6652 28.5 16.0059 28.5ZM12.4483 5.98276C13.6207 8.41954 15.2931 10.1609 17.4655 11.2069C19.6379 12.2529 21.6782 12.7759 23.5862 12.7759C24.046 12.7759 24.5 12.7529 24.9483 12.7069C25.3966 12.6609 25.8391 12.5805 26.2759 12.4655C25.4253 10.2816 24.0517 8.56897 22.1552 7.32759C20.2586 6.08621 18.2069 5.46552 16 5.46552C15.3103 5.46552 14.6839 5.50575 14.1207 5.58621C13.5575 5.66667 13 5.79885 12.4483 5.98276ZM5.03448 15.2241C6.52874 14.6034 8.09195 13.5172 9.72414 11.9655C11.3563 10.4138 12.2644 8.41954 12.4483 5.98276C10.4023 6.6954 8.72414 7.87356 7.41379 9.51724C6.10345 11.1609 5.31034 13.0632 5.03448 15.2241Z" fill="white"/>
</svg>
